<svg class="faux code" xmlns="http://www.w3.org/2000/svg" xmlns:xlink="http://www.w3.org/1999/xlink" width="515" height="300" viewBox="0 0 515 300">
<rect x="0" y="0" width="515" height="300" fill="#2d2b57"></rect><g class="code block" stroke-linecap="round" stroke-width="5">
<g class="code block" stroke-linecap="round" stroke-width="5">
   <line x1="47.5" y1="50" x2="62.5" y2="50" stroke="#e3dfff"></line>
   <line x1="67.5" y1="50" x2="97.5" y2="50" stroke="#e3dfff"></line>
   <line x1="102.5" y1="50" x2="202.5" y2="50" stroke="#4cd213"></line>
   <line x1="207.5" y1="50" x2="207.5" y2="50" stroke="#e3dfff"></line>
   <line x1="217.5" y1="50" x2="222.5" y2="50" stroke="#ffffff"></line>
</g>

<g class="code block" stroke-linecap="round" stroke-width="5">
   <line x1="47.5" y1="60" x2="57.5" y2="60" stroke="#e3dfff"></line>
   <line x1="57.5" y1="60" x2="72.5" y2="60" stroke="#a1feff"></line>
   <line x1="82.5" y1="60" x2="92.5" y2="60" stroke="#f8d000"></line>
   <line x1="97.5" y1="60" x2="97.5" y2="60" stroke="#e3dfff"></line>
   <line x1="102.5" y1="60" x2="157.5" y2="60" stroke="#4cd213"></line>
   <line x1="167.5" y1="60" x2="182.5" y2="60" stroke="#f8d000"></line>
   <line x1="187.5" y1="60" x2="187.5" y2="60" stroke="#e3dfff"></line>
   <line x1="192.5" y1="60" x2="302.5" y2="60" stroke="#4cd213"></line>
   <line x1="307.5" y1="60" x2="307.5" y2="60" stroke="#e3dfff"></line>
</g>

<g class="code block" stroke-linecap="round" stroke-width="5">
</g>

<g class="code block" stroke-linecap="round" stroke-width="5">
   <line x1="47.5" y1="80" x2="57.5" y2="80" stroke="#e3dfff"></line>
   <line x1="57.5" y1="80" x2="67.5" y2="80" stroke="#a1feff"></line>
   <line x1="77.5" y1="80" x2="97.5" y2="80" stroke="#f8d000"></line>
   <line x1="102.5" y1="80" x2="102.5" y2="80" stroke="#e3dfff"></line>
   <line x1="107.5" y1="80" x2="372.5" y2="80" stroke="#4cd213"></line>
   <line x1="377.5" y1="80" x2="377.5" y2="80" stroke="#e3dfff"></line>
</g>

<g class="code block" stroke-linecap="round" stroke-width="5">
   <line x1="72.5" y1="90" x2="72.5" y2="90" stroke="#e3dfff"></line>
   <line x1="77.5" y1="90" x2="87.5" y2="90" stroke="#a1feff"></line>
   <line x1="97.5" y1="90" x2="117.5" y2="90" stroke="#f8d000"></line>
   <line x1="122.5" y1="90" x2="122.5" y2="90" stroke="#e3dfff"></line>
   <line x1="127.5" y1="90" x2="377.5" y2="90" stroke="#4cd213"></line>
   <line x1="382.5" y1="90" x2="382.5" y2="90" stroke="#e3dfff"></line>
</g>

<g class="code block" stroke-linecap="round" stroke-width="5">
   <line x1="92.5" y1="100" x2="92.5" y2="100" stroke="#e3dfff"></line>
   <line x1="97.5" y1="100" x2="107.5" y2="100" stroke="#a1feff"></line>
   <line x1="117.5" y1="100" x2="137.5" y2="100" stroke="#f8d000"></line>
   <line x1="142.5" y1="100" x2="142.5" y2="100" stroke="#e3dfff"></line>
   <line x1="147.5" y1="100" x2="182.5" y2="100" stroke="#4cd213"></line>
   <line x1="187.5" y1="100" x2="187.5" y2="100" stroke="#e3dfff"></line>
</g>

<g class="code block" stroke-linecap="round" stroke-width="5">
   <line x1="112.5" y1="110" x2="112.5" y2="110" stroke="#e3dfff"></line>
   <line x1="117.5" y1="110" x2="122.5" y2="110" stroke="#a1feff"></line>
   <line x1="132.5" y1="110" x2="152.5" y2="110" stroke="#f8d000"></line>
   <line x1="157.5" y1="110" x2="157.5" y2="110" stroke="#e3dfff"></line>
   <line x1="162.5" y1="110" x2="212.5" y2="110" stroke="#4cd213"></line>
   <line x1="217.5" y1="110" x2="217.5" y2="110" stroke="#e3dfff"></line>
   <line x1="222.5" y1="110" x2="247.5" y2="110" stroke="#e3dfff"></line>
   <line x1="257.5" y1="110" x2="267.5" y2="110" stroke="#e3dfff"></line>
   <line x1="277.5" y1="110" x2="307.5" y2="110" stroke="#e3dfff"></line>
   <line x1="312.5" y1="110" x2="317.5" y2="110" stroke="#e3dfff"></line>
   <line x1="322.5" y1="110" x2="327.5" y2="110" stroke="#a1feff"></line>
   <line x1="332.5" y1="110" x2="332.5" y2="110" stroke="#e3dfff"></line>
</g>

<g class="code block" stroke-linecap="round" stroke-width="5">
   <line x1="112.5" y1="120" x2="112.5" y2="120" stroke="#e3dfff"></line>
   <line x1="117.5" y1="120" x2="117.5" y2="120" stroke="#a1feff"></line>
   <line x1="127.5" y1="120" x2="147.5" y2="120" stroke="#f8d000"></line>
   <line x1="152.5" y1="120" x2="152.5" y2="120" stroke="#e3dfff"></line>
   <line x1="157.5" y1="120" x2="182.5" y2="120" stroke="#4cd213"></line>
   <line x1="187.5" y1="120" x2="187.5" y2="120" stroke="#e3dfff"></line>
   <line x1="192.5" y1="120" x2="202.5" y2="120" stroke="#e3dfff"></line>
   <line x1="212.5" y1="120" x2="257.5" y2="120" stroke="#e3dfff"></line>
   <line x1="262.5" y1="120" x2="267.5" y2="120" stroke="#e3dfff"></line>
   <line x1="272.5" y1="120" x2="272.5" y2="120" stroke="#a1feff"></line>
   <line x1="277.5" y1="120" x2="277.5" y2="120" stroke="#e3dfff"></line>
</g>

<g class="code block" stroke-linecap="round" stroke-width="5">
   <line x1="92.5" y1="130" x2="97.5" y2="130" stroke="#e3dfff"></line>
   <line x1="102.5" y1="130" x2="112.5" y2="130" stroke="#a1feff"></line>
   <line x1="117.5" y1="130" x2="117.5" y2="130" stroke="#e3dfff"></line>
</g>

<g class="code block" stroke-linecap="round" stroke-width="5">
   <line x1="72.5" y1="140" x2="77.5" y2="140" stroke="#e3dfff"></line>
   <line x1="82.5" y1="140" x2="92.5" y2="140" stroke="#a1feff"></line>
   <line x1="97.5" y1="140" x2="97.5" y2="140" stroke="#e3dfff"></line>
</g>

<g class="code block" stroke-linecap="round" stroke-width="5">
   <line x1="72.5" y1="150" x2="72.5" y2="150" stroke="#e3dfff"></line>
   <line x1="77.5" y1="150" x2="87.5" y2="150" stroke="#a1feff"></line>
   <line x1="97.5" y1="150" x2="117.5" y2="150" stroke="#f8d000"></line>
   <line x1="122.5" y1="150" x2="122.5" y2="150" stroke="#e3dfff"></line>
   <line x1="127.5" y1="150" x2="227.5" y2="150" stroke="#4cd213"></line>
   <line x1="232.5" y1="150" x2="232.5" y2="150" stroke="#e3dfff"></line>
</g>

<g class="code block" stroke-linecap="round" stroke-width="5">
   <line x1="92.5" y1="160" x2="92.5" y2="160" stroke="#e3dfff"></line>
   <line x1="97.5" y1="160" x2="122.5" y2="160" stroke="#a1feff"></line>
   <line x1="127.5" y1="160" x2="127.5" y2="160" stroke="#e3dfff"></line>
</g>

<g class="code block" stroke-linecap="round" stroke-width="5">
   <line x1="112.5" y1="170" x2="112.5" y2="170" stroke="#e3dfff"></line>
   <line x1="117.5" y1="170" x2="162.5" y2="170" stroke="#a1feff"></line>
   <line x1="172.5" y1="170" x2="192.5" y2="170" stroke="#f8d000"></line>
   <line x1="197.5" y1="170" x2="197.5" y2="170" stroke="#e3dfff"></line>
   <line x1="202.5" y1="170" x2="257.5" y2="170" stroke="#4cd213"></line>
   <line x1="262.5" y1="170" x2="262.5" y2="170" stroke="#e3dfff"></line>
</g>

<g class="code block" stroke-linecap="round" stroke-width="5">
   <line x1="132.5" y1="180" x2="132.5" y2="180" stroke="#e3dfff"></line>
   <line x1="137.5" y1="180" x2="137.5" y2="180" stroke="#a1feff"></line>
   <line x1="142.5" y1="180" x2="142.5" y2="180" stroke="#e3dfff"></line>
   <line x1="147.5" y1="180" x2="157.5" y2="180" stroke="#e3dfff"></line>
   <line x1="167.5" y1="180" x2="182.5" y2="180" stroke="#e3dfff"></line>
   <line x1="192.5" y1="180" x2="192.5" y2="180" stroke="#e3dfff"></line>
   <line x1="202.5" y1="180" x2="227.5" y2="180" stroke="#e3dfff"></line>
   <line x1="237.5" y1="180" x2="247.5" y2="180" stroke="#e3dfff"></line>
   <line x1="257.5" y1="180" x2="272.5" y2="180" stroke="#e3dfff"></line>
   <line x1="282.5" y1="180" x2="282.5" y2="180" stroke="#e3dfff"></line>
   <line x1="292.5" y1="180" x2="322.5" y2="180" stroke="#e3dfff"></line>
   <line x1="332.5" y1="180" x2="342.5" y2="180" stroke="#e3dfff"></line>
   <line x1="352.5" y1="180" x2="367.5" y2="180" stroke="#e3dfff"></line>
   <line x1="377.5" y1="180" x2="377.5" y2="180" stroke="#e3dfff"></line>
   <line x1="387.5" y1="180" x2="407.5" y2="180" stroke="#e3dfff"></line>
   <line x1="417.5" y1="180" x2="437.5" y2="180" stroke="#e3dfff"></line>
   <line x1="442.5" y1="180" x2="447.5" y2="180" stroke="#e3dfff"></line>
   <line x1="452.5" y1="180" x2="452.5" y2="180" stroke="#a1feff"></line>
   <line x1="457.5" y1="180" x2="457.5" y2="180" stroke="#e3dfff"></line>
</g>

<g class="code block" stroke-linecap="round" stroke-width="5">
   <line x1="112.5" y1="190" x2="117.5" y2="190" stroke="#e3dfff"></line>
   <line x1="122.5" y1="190" x2="167.5" y2="190" stroke="#a1feff"></line>
   <line x1="172.5" y1="190" x2="172.5" y2="190" stroke="#e3dfff"></line>
</g>

<g class="code block" stroke-linecap="round" stroke-width="5">
   <line x1="112.5" y1="200" x2="112.5" y2="200" stroke="#e3dfff"></line>
   <line x1="117.5" y1="200" x2="162.5" y2="200" stroke="#a1feff"></line>
   <line x1="172.5" y1="200" x2="192.5" y2="200" stroke="#f8d000"></line>
   <line x1="197.5" y1="200" x2="197.5" y2="200" stroke="#e3dfff"></line>
   <line x1="202.5" y1="200" x2="292.5" y2="200" stroke="#4cd213"></line>
   <line x1="297.5" y1="200" x2="297.5" y2="200" stroke="#e3dfff"></line>
</g>

<g class="code block" stroke-linecap="round" stroke-width="5">
   <line x1="132.5" y1="210" x2="157.5" y2="210" stroke="#e3dfff"></line>
   <line x1="167.5" y1="210" x2="207.5" y2="210" stroke="#e3dfff"></line></g>

<g class="code block" stroke-linecap="round" stroke-width="5">
   <line x1="112.5" y1="220" x2="117.5" y2="220" stroke="#e3dfff"></line>
   <line x1="122.5" y1="220" x2="167.5" y2="220" stroke="#a1feff"></line>
   <line x1="172.5" y1="220" x2="172.5" y2="220" stroke="#e3dfff"></line>
</g>

<g class="code block" stroke-linecap="round" stroke-width="5">
   <line x1="92.5" y1="230" x2="97.5" y2="230" stroke="#e3dfff"></line>
   <line x1="102.5" y1="230" x2="127.5" y2="230" stroke="#a1feff"></line>
   <line x1="132.5" y1="230" x2="132.5" y2="230" stroke="#e3dfff"></line>
</g>

<g class="code block" stroke-linecap="round" stroke-width="5">
   <line x1="72.5" y1="240" x2="77.5" y2="240" stroke="#e3dfff"></line>
   <line x1="82.5" y1="240" x2="92.5" y2="240" stroke="#a1feff"></line>
   <line x1="97.5" y1="240" x2="97.5" y2="240" stroke="#e3dfff"></line>
</g>

<g class="code block" stroke-linecap="round" stroke-width="5">
   <line x1="47.5" y1="250" x2="62.5" y2="250" stroke="#e3dfff"></line>
   <line x1="62.5" y1="250" x2="72.5" y2="250" stroke="#a1feff"></line>
   <line x1="77.5" y1="250" x2="77.5" y2="250" stroke="#e3dfff"></line></g>
</g>
  <g class="line numbers" stroke="#e3dfff" stroke-linecap="round" stroke-width="5">
   <line x1="32.5" y1="50" x2="32.5" y2="50" stroke="#e3dfff"></line>
   <line x1="32.5" y1="60" x2="32.5" y2="60" stroke="#e3dfff"></line>
   <line x1="32.5" y1="70" x2="32.5" y2="70" stroke="#e3dfff"></line>
   <line x1="32.5" y1="80" x2="32.5" y2="80" stroke="#e3dfff"></line>
   <line x1="32.5" y1="90" x2="32.5" y2="90" stroke="#e3dfff"></line>
   <line x1="32.5" y1="100" x2="32.5" y2="100" stroke="#e3dfff"></line>
   <line x1="32.5" y1="110" x2="32.5" y2="110" stroke="#e3dfff"></line>
   <line x1="32.5" y1="120" x2="32.5" y2="120" stroke="#e3dfff"></line>
   <line x1="32.5" y1="130" x2="32.5" y2="130" stroke="#e3dfff"></line>
   <line x1="32.5" y1="140" x2="27.5" y2="140" stroke="#e3dfff"></line>
   <line x1="32.5" y1="150" x2="27.5" y2="150" stroke="#e3dfff"></line>
   <line x1="32.5" y1="160" x2="27.5" y2="160" stroke="#e3dfff"></line>
   <line x1="32.5" y1="170" x2="27.5" y2="170" stroke="#e3dfff"></line>
   <line x1="32.5" y1="180" x2="27.5" y2="180" stroke="#e3dfff"></line>
   <line x1="32.5" y1="190" x2="27.5" y2="190" stroke="#e3dfff"></line>
   <line x1="32.5" y1="200" x2="27.5" y2="200" stroke="#e3dfff"></line>
   <line x1="32.5" y1="210" x2="27.5" y2="210" stroke="#e3dfff"></line>
   <line x1="32.5" y1="220" x2="27.5" y2="220" stroke="#e3dfff"></line>
   <line x1="32.5" y1="230" x2="27.5" y2="230" stroke="#e3dfff"></line>
   <line x1="32.5" y1="240" x2="27.5" y2="240" stroke="#e3dfff"></line>
   <line x1="32.5" y1="250" x2="27.5" y2="250" stroke="#e3dfff"></line>  </g>
</svg>